<svg width="28" height="28" viewBox="0 0 28 28" fill="none" xmlns="http://www.w3.org/2000/svg">
<rect width="28" height="28" fill="#6D6AFE"/>
<circle cx="14" cy="14" r="14" fill="#6D6AFE"/>
<path fill-rule="evenodd" clip-rule="evenodd" d="M13.9997 8.69971C12.8856 8.69971 11.9825 9.60284 11.9825 10.7169C11.9825 11.831 12.8856 12.7341 13.9997 12.7341C15.1137 12.7341 16.0169 11.831 16.0169 10.7169C16.0169 9.60284 15.1137 8.69971 13.9997 8.69971ZM9.83301 18.1876C9.83301 18.4113 10.0144 18.5927 10.2381 18.5927H17.7613C17.985 18.5927 18.1663 18.4113 18.1663 18.1876C18.1663 15.8864 16.3009 14.0209 13.9997 14.0209C11.6985 14.0209 9.83301 15.8864 9.83301 18.1876Z" fill="white"/>
</svg>
